<?xml version="1.0" standalone="no"?>
<!DOCTYPE svg PUBLIC "-//W3C//DTD SVG 20010904//EN"
 "http://www.w3.org/TR/2001/REC-SVG-20010904/DTD/svg10.dtd">
<svg version="1.0" xmlns="http://www.w3.org/2000/svg"
 width="1254.000000pt" height="1254.000000pt" viewBox="0 0 1254.000000 1254.000000"
 preserveAspectRatio="xMidYMid meet">

<g transform="translate(0.000000,1254.000000) scale(0.100000,-0.100000)"
fill="#000000" stroke="none">
<path d="M6335 9810 c-511 -52 -931 -184 -1349 -422 -612 -350 -1079 -904
-1331 -1577 -85 -228 -137 -431 -172 -681 -22 -156 -25 -562 -4 -720 28 -219
90 -469 167 -672 19 -51 40 -106 46 -121 6 -15 12 -26 14 -24 3 2 0 17 -6 33
l-10 29 20 -24 c26 -31 25 -17 -5 68 -34 93 -73 249 -100 401 -13 69 -24 110
-24 93 -1 -18 -5 -33 -10 -33 -5 0 -14 -12 -19 -27 -9 -26 -10 -25 -21 29 -12
56 -7 123 10 134 5 3 9 15 9 26 0 35 9 15 19 -43 7 -39 8 -20 3 71 -13 238 -6
544 16 692 134 895 647 1670 1418 2144 708 435 1611 558 2414 328 176 -49 296
-96 478 -184 96 -47 169 -77 180 -74 12 4 14 3 4 -3 -10 -7 16 -28 93 -77 58
-37 111 -64 117 -60 6 4 8 3 5 -4 -4 -5 25 -34 65 -64 40 -29 108 -83 152
-120 43 -37 84 -64 89 -61 6 3 7 2 4 -4 -3 -5 30 -45 74 -89 91 -90 242 -266
313 -367 26 -37 51 -65 56 -62 5 3 12 0 16 -6 4 -8 3 -9 -4 -5 -21 13 -13 -5
55 -114 66 -106 92 -136 58 -68 -16 31 -16 32 0 16 10 -9 18 -32 19 -50 1 -18
25 -81 53 -139 140 -286 234 -608 275 -944 17 -141 17 -550 0 -715 -44 -417
-174 -837 -371 -1198 -28 -52 -49 -98 -45 -103 3 -5 1 -8 -4 -7 -6 2 -42 -44
-81 -102 -62 -93 -141 -196 -282 -365 -22 -27 5 -3 61 55 461 474 733 1073
816 1800 20 181 15 622 -10 795 -30 205 -79 403 -148 604 -36 105 -78 201 -63
145 6 -23 -20 -30 -29 -7 -3 7 -12 13 -20 13 -26 0 -37 61 -16 84 5 5 6 16 3
25 -4 11 -1 10 10 -4 28 -35 19 -6 -29 88 -87 173 -252 447 -269 447 -4 0 -3
-6 1 -12 4 -8 3 -9 -2 -5 -5 5 -9 14 -9 20 0 7 -4 14 -10 15 -5 2 -16 8 -22
14 -7 6 -19 8 -27 5 -20 -8 -36 15 -31 43 2 13 -1 30 -8 39 -9 11 -9 13 0 8 7
-4 27 -28 44 -52 18 -25 34 -43 37 -41 7 7 -99 136 -108 131 -5 -3 -11 -1 -15
4 -3 5 -15 8 -27 6 -27 -6 -40 13 -27 38 9 15 13 16 25 6 8 -7 12 -19 9 -28
-3 -8 -3 -12 1 -8 4 4 14 1 22 -6 27 -22 -3 25 -34 53 -15 14 -24 19 -19 11 5
-10 4 -12 -4 -7 -6 4 -8 12 -5 18 7 11 -241 258 -258 258 -5 0 -6 -4 -3 -10
10 -16 -1 -11 -16 7 -12 14 -12 16 1 9 8 -4 -10 15 -40 43 -53 49 -79 65 -64
39 6 -9 3 -9 -9 0 -9 8 -28 15 -42 16 -32 4 -33 5 -37 39 -4 30 -64 81 -86 72
-7 -2 -11 -1 -7 4 8 14 -173 122 -326 195 -298 143 -604 235 -940 281 -136 19
-545 28 -674 15z m13 -177 c-10 -2 -26 -2 -35 0 -10 3 -2 5 17 5 19 0 27 -2
18 -5z m540 0 c-10 -2 -28 -2 -40 0 -13 2 -5 4 17 4 22 1 32 -1 23 -4z m79 -9
c-3 -3 -12 -4 -19 -1 -8 3 -5 6 6 6 11 1 17 -2 13 -5z m753 -24 c8 -5 12 -11
9 -14 -3 -3 -14 1 -25 9 -21 16 -8 20 16 5z m-453 -26 c-3 -3 -12 -4 -19 -1
-8 3 -5 6 6 6 11 1 17 -2 13 -5z m237 -63 c4 -5 -3 -7 -14 -4 -23 6 -26 13 -6
13 8 0 17 -4 20 -9z m471 -29 c-3 -3 -11 0 -18 7 -9 10 -8 11 6 5 10 -3 15 -9
12 -12z m81 -40 c-5 -4 -66 26 -66 33 0 3 16 -3 35 -12 19 -9 33 -18 31 -21z
m-401 18 c13 -6 15 -9 5 -9 -8 0 -22 4 -30 9 -18 12 -2 12 25 0z m125 -50 c8
-5 11 -10 5 -10 -5 0 -17 5 -25 10 -8 5 -10 10 -5 10 6 0 17 -5 25 -10z m85
-40 c3 -6 -1 -7 -9 -4 -18 7 -21 14 -7 14 6 0 13 -4 16 -10z m-2885 -5 c0 -2
-10 -9 -22 -15 -22 -11 -22 -10 -4 4 21 17 26 19 26 11z m3265 -30 c18 -15 18
-16 2 -11 -10 3 -24 6 -32 6 -7 0 -15 9 -18 20 -4 16 -2 18 11 11 10 -5 26
-17 37 -26z m298 -231 c-8 -22 -33 -16 -33 8 0 12 -8 30 -17 42 -12 13 -5 10
19 -8 23 -17 35 -33 31 -42z m81 -66 c-4 -6 -3 -8 3 -5 6 4 21 -5 34 -20 13
-14 17 -22 9 -17 -8 4 -19 9 -25 10 -5 0 -16 2 -22 2 -7 1 -13 14 -13 28 0 14
4 23 10 19 6 -4 7 -11 4 -17z m-133 -35 c0 -5 2 -16 4 -25 4 -23 -8 -23 -29 1
-13 15 -14 20 -4 24 20 8 28 8 29 0z m279 -94 c0 -5 0 -11 0 -14 0 -8 -15 -6
-15 3 0 4 -4 13 -8 19 -6 9 -3 11 7 7 9 -3 16 -10 16 -15z m94 -282 c4 4 4 0
0 -10 -8 -22 -11 -22 -25 6 -11 19 -10 20 3 10 8 -7 18 -10 22 -6z m229 -116
c17 -30 17 -30 -4 -26 -34 7 -50 25 -39 45 5 9 6 21 2 26 -4 5 0 3 8 -3 8 -6
23 -25 33 -42z m-119 -32 c-7 -12 -21 -3 -35 22 -10 20 -10 20 15 4 14 -10 23
-21 20 -26z m181 -69 c9 -16 13 -30 11 -30 -3 0 -12 14 -21 30 -9 17 -13 30
-11 30 3 0 12 -13 21 -30z m91 -153 c19 -35 8 -56 -15 -30 -10 10 -18 33 -18
51 0 34 4 32 33 -21z m63 -362 c0 -5 -8 6 -19 25 -11 19 -19 40 -19 45 0 6 8
-6 19 -25 11 -19 19 -39 19 -45z m40 -90 c0 -5 -6 1 -14 15 -8 14 -14 30 -14
35 0 6 6 -1 14 -15 8 -14 14 -29 14 -35z m-5678 -2 c-12 -20 -14 -14 -5 12 4
9 9 14 11 11 3 -2 0 -13 -6 -23z m5807 -108 c0 -5 -6 4 -13 20 -8 17 -14 37
-14 45 0 8 7 -1 14 -20 7 -19 13 -39 13 -45z m-39 -155 c0 -9 -4 -8 -9 5 -5
11 -9 27 -9 35 0 9 4 8 9 -5 5 -11 9 -27 9 -35z m118 -162 c-3 -8 -6 -5 -6 6
-1 11 2 17 5 13 3 -3 4 -12 1 -19z m-6032 -135 c-3 -19 -9 -33 -12 -30 -3 3
-2 25 2 49 5 24 10 37 12 30 3 -7 2 -29 -2 -49z m-18 -75 c-3 -8 -6 -5 -6 6
-1 11 2 17 5 13 3 -3 4 -12 1 -19z m-12 -135 c-3 -24 -9 -43 -11 -40 -3 3 -2
29 2 58 4 30 9 48 12 41 2 -7 1 -34 -3 -59z m-18 -240 c-2 -16 -4 -5 -4 22 0
28 2 40 4 28 2 -13 2 -35 0 -50z m70 -80 c-2 -16 -4 -5 -4 22 0 28 2 40 4 28
2 -13 2 -35 0 -50z m-41 -65 c1 -4 2 -18 3 -29 1 -16 6 -20 21 -16 19 5 20 0
20 -86 0 -57 -4 -87 -9 -78 -7 11 -11 8 -17 -10 -11 -32 -11 -34 -14 -71 l-2
-33 -8 35 c-8 31 -30 265 -30 313 0 18 1 18 18 1 9 -10 18 -21 18 -26z m6078
-392 c-3 -21 -8 -35 -11 -32 -2 2 -1 20 3 40 3 21 8 35 11 32 2 -2 1 -20 -3
-40z m-6067 12 c-3 -8 -6 -5 -6 6 -1 11 2 17 5 13 3 -3 4 -12 1 -19z m6008
-93 c-3 -26 -8 -45 -11 -43 -2 3 -1 26 2 52 4 25 9 44 12 42 2 -3 1 -26 -3
-51z m-18 -107 c-3 -7 -5 -2 -5 12 0 14 2 19 5 13 2 -7 2 -19 0 -25z m-5907
-108 c4 0 6 12 3 28 -2 16 2 10 11 -15 14 -42 30 -129 19 -104 -4 10 -7 11
-13 1 -8 -12 -32 56 -44 125 -6 30 -5 30 6 -2 6 -18 14 -33 18 -33z m5917 -42
c-3 -8 -6 -5 -6 6 -1 11 2 17 5 13 3 -3 4 -12 1 -19z m-20 -70 c-3 -8 -6 -5
-6 6 -1 11 2 17 5 13 3 -3 4 -12 1 -19z m-50 -40 c-3 -8 -6 -5 -6 6 -1 11 2
17 5 13 3 -3 4 -12 1 -19z m37 -12 c-3 -15 -8 -25 -11 -23 -2 3 -1 17 3 31 3
15 8 25 11 23 2 -3 1 -17 -3 -31z m-5814 -32 c6 -14 10 -37 9 -52 l-1 -27 -13
30 c-7 17 -16 40 -19 53 -10 31 12 28 24 -4z m5663 -369 c-3 -9 -8 -14 -10
-11 -3 3 -2 9 2 15 9 16 15 13 8 -4z m-22 -48 c-10 -9 -11 -8 -5 6 3 10 9 15
12 12 3 -3 0 -11 -7 -18z m-143 -266 c-11 -20 -27 -42 -34 -50 -12 -13 -13
-12 -9 6 6 36 25 64 37 57 7 -5 9 -2 6 8 -4 9 0 15 8 15 10 0 8 -9 -8 -36z
m-117 -168 c-6 -10 -20 -29 -31 -43 l-21 -25 12 25 c11 25 39 60 46 60 2 0 -1
-8 -6 -17z m-101 -137 c0 -2 -8 -10 -17 -17 -16 -13 -17 -12 -4 4 13 16 21 21
21 13z"/>
<path d="M3490 6559 c0 -17 4 -28 10 -24 6 3 10 17 10 31 0 13 -4 24 -10 24
-5 0 -10 -14 -10 -31z"/>
<path d="M3531 6474 c0 -11 3 -14 6 -6 3 7 2 16 -1 19 -3 4 -6 -2 -5 -13z"/>
<path d="M8390 9239 c42 -34 67 -42 30 -10 -19 17 -39 30 -45 31 -5 0 1 -9 15
-21z"/>
<path d="M6100 8823 l0 -310 -112 -88 c-62 -49 -236 -186 -385 -304 l-273
-216 0 -618 c0 -524 -2 -618 -14 -614 -8 3 -116 78 -241 167 -125 89 -232 159
-239 157 -6 -3 -125 -98 -263 -212 l-253 -206 0 -393 0 -393 53 14 c103 29
393 27 471 -3 14 -5 16 43 18 511 l3 517 215 -154 215 -155 5 -480 5 -480 68
-52 c37 -28 70 -51 73 -51 2 0 4 534 4 1188 l0 1187 107 85 c59 47 204 161
323 254 l215 168 5 -1515 5 -1515 222 176 221 177 2 825 1 825 146 115 c80 63
181 142 223 175 42 33 97 76 123 95 l46 35 1 345 0 346 -212 151 c-117 83
-328 234 -468 335 -140 101 -267 192 -282 202 l-28 18 0 -309z"/>
<path d="M9360 8025 c0 -5 5 -17 10 -25 5 -8 10 -10 10 -5 0 6 -5 17 -10 25
-5 8 -10 11 -10 5z"/>
<path d="M5712 7813 l-134 -106 3 -1200 3 -1199 29 -37 c38 -47 92 -146 107
-196 7 -22 15 -43 17 -48 2 -4 30 12 61 36 l56 44 -2 1403 c-1 772 -3 1404 -5
1406 -1 1 -62 -45 -135 -103z"/>
<path d="M7094 7614 c-98 -76 -241 -187 -316 -247 l-138 -108 0 -755 c0 -415
3 -754 6 -754 3 0 24 14 45 31 l39 31 2 696 3 697 257 197 258 197 2 -1016 3
-1016 258 -214 257 -213 0 790 0 791 46 19 c25 11 53 20 61 20 9 0 62 -31 119
-70 56 -38 105 -70 108 -70 3 0 6 126 6 279 l0 279 -402 282 c-222 156 -410
285 -419 287 -9 3 -89 -52 -195 -133z"/>
<path d="M7073 7238 c-21 -23 -21 -28 -22 -761 l-2 -737 28 -25 c15 -13 30
-25 33 -25 3 0 4 353 2 785 -1 432 -6 785 -10 785 -5 0 -18 -10 -29 -22z"/>
<path d="M6887 7103 c-13 -16 -16 -92 -23 -610 -7 -628 -8 -609 38 -634 17 -9
18 13 18 626 0 349 -4 635 -8 635 -5 0 -16 -8 -25 -17z"/>
<path d="M7890 5841 l0 -800 118 -98 c64 -54 131 -110 148 -123 17 -14 105
-85 195 -159 90 -74 170 -139 177 -144 9 -8 12 162 12 840 l0 850 -207 141
c-115 77 -257 175 -318 216 -60 42 -113 76 -117 76 -5 0 -8 -360 -8 -799z"/>
<path d="M6598 5527 c-130 -106 -369 -300 -531 -432 l-296 -240 6 -34 c3 -19
11 -76 17 -127 l11 -93 290 236 c785 638 745 607 770 592 13 -8 301 -241 641
-519 830 -678 1045 -851 1069 -860 11 -4 83 -15 160 -24 77 -9 158 -19 180
-22 l40 -5 -35 31 c-19 17 -78 66 -130 108 -288 233 -750 611 -1165 952 -694
570 -769 630 -780 629 -5 0 -116 -87 -247 -192z"/>
<path d="M4609 5662 c25 -20 37 -22 59 -8 17 10 110 -3 119 -16 3 -6 1 -8 -4
-5 -11 7 -74 -20 -84 -36 -4 -5 -18 4 -33 19 -14 16 -26 24 -26 18 0 -7 7 -17
15 -24 59 -49 178 -270 228 -425 47 -145 87 -369 87 -492 0 -61 -15 -26 -49
117 -42 172 -90 307 -103 288 -6 -9 -7 -6 -3 10 10 35 -123 300 -144 288 -5
-3 -8 2 -7 12 0 9 -4 16 -11 15 -7 -2 -10 4 -7 12 7 18 -145 172 -198 199 -36
20 -37 20 -123 -2 -89 -22 -195 -65 -195 -79 0 -4 19 -19 42 -32 23 -13 64
-45 91 -70 27 -25 52 -45 56 -43 3 1 6 -1 6 -5 0 -5 26 -47 58 -94 64 -97 109
-189 144 -299 43 -135 84 -350 66 -350 -4 0 -21 42 -37 93 -36 118 -109 283
-124 280 -7 -2 -9 4 -5 14 4 11 3 14 -5 9 -8 -4 -10 -2 -6 7 8 22 -109 188
-180 255 -75 70 -201 138 -235 127 -27 -8 -171 -121 -172 -135 -1 -6 -2 -16
-3 -22 0 -7 -5 -13 -11 -13 -20 0 -36 -17 -31 -32 3 -8 2 -12 -3 -8 -12 7 -40
-32 -80 -113 -72 -144 -113 -298 -133 -505 l-12 -128 -44 -19 c-31 -14 -47
-29 -57 -54 -18 -44 -20 -115 -2 -120 6 -2 64 -16 127 -32 63 -15 228 -65 365
-111 368 -124 494 -153 760 -173 281 -22 672 14 967 89 180 45 258 88 258 140
0 33 -87 99 -218 165 l-72 36 0 73 c0 95 -33 325 -60 423 -26 94 -76 196 -135
279 -44 62 -155 174 -213 214 l-32 22 25 -69 c31 -86 60 -226 74 -354 13 -119
14 -308 2 -308 -5 0 -12 33 -16 73 -21 228 -119 537 -227 722 -47 81 -73 112
-109 130 -32 17 -200 51 -294 60 l-70 6 24 -19z m-138 -58 c9 -12 9 -15 2 -10
-8 4 -13 2 -13 -6 0 -7 -11 -2 -24 12 -13 14 -21 28 -19 33 5 9 36 -7 54 -29z
m548 -76 c19 -36 19 -39 3 -19 -31 38 -59 88 -41 74 8 -6 25 -31 38 -55z
m-453 0 c47 -54 48 -58 15 -48 -17 5 -31 6 -31 2 0 -4 -5 0 -10 8 -12 18 -13
60 -2 60 5 0 17 -10 28 -22z m232 -93 c-3 -3 -9 2 -12 12 -6 14 -5 15 5 6 7
-7 10 -15 7 -18z m351 -170 c0 -5 -8 6 -19 25 -11 19 -19 42 -19 50 0 16 37
-58 38 -75z m169 52 c29 -27 28 -33 -8 -40 -20 -4 -30 -13 -30 -24 -1 -15 -2
-16 -9 -3 -5 8 -12 30 -16 48 -5 26 -3 32 10 32 10 0 13 5 9 12 -9 15 14 2 44
-25z m-1093 -7 c10 -11 16 -20 13 -20 -3 0 -13 9 -23 20 -10 11 -16 20 -13 20
3 0 13 -9 23 -20z m523 -55 c-3 -3 -9 2 -12 12 -6 14 -5 15 5 6 7 -7 10 -15 7
-18z m697 -91 c9 -15 12 -23 6 -20 -11 7 -35 46 -28 46 3 0 12 -12 22 -26z
m-1045 -79 c0 -5 -14 11 -30 37 -39 62 -39 76 0 18 16 -25 30 -49 30 -55z
m809 -5 c1 -13 0 -13 -9 0 -5 8 -9 24 -9 35 l0 20 9 -20 c5 -11 9 -27 9 -35z
m295 -16 c3 -8 2 -12 -4 -9 -6 3 -10 10 -10 16 0 14 7 11 14 -7z m-267 -116
c-3 -8 -6 -5 -6 6 -1 11 2 17 5 13 3 -3 4 -12 1 -19z m370 -270 c-3 -8 -6 -5
-6 6 -1 11 2 17 5 13 3 -3 4 -12 1 -19z m-1763 -174 l65 -16 12 -49 c14 -56 5
-51 179 -89 233 -50 481 -79 678 -80 61 0 112 -4 112 -9 0 -14 -165 -24 -375
-23 -210 1 -368 18 -540 59 -60 14 -114 26 -120 26 -5 0 -10 25 -10 55 0 61
-21 87 -65 78 -14 -3 -18 -2 -10 1 9 4 -7 14 -45 28 -83 31 -86 50 -7 42 34
-4 91 -14 126 -23z m-334 -47 c0 -2 -10 -12 -22 -23 l-23 -19 19 23 c18 21 26
27 26 19z m2179 -99 c-16 -6 -25 -3 -35 9 -22 29 -16 34 22 16 33 -16 34 -18
13 -25z m-1484 -8 c7 -11 -9 -11 -45 0 -24 8 -24 8 7 9 17 1 35 -3 38 -9z
m1636 -61 c25 -13 16 -29 -17 -29 -26 0 -27 1 -18 24 7 19 9 19 35 5z m-141
-201 c0 -4 -4 -8 -9 -8 -5 0 -24 -2 -42 -5 l-34 -6 30 14 c34 15 55 18 55 5z
m-1315 -48 c25 -11 -1 -11 -35 0 -20 6 -21 8 -5 8 11 0 29 -3 40 -8z m333 -47
c-10 -2 -26 -2 -35 0 -10 3 -2 5 17 5 19 0 27 -2 18 -5z"/>
<path d="M3740 5562 c0 -7 -5 -10 -11 -7 -5 4 -3 -10 6 -31 19 -47 20 -47 33
-32 7 9 5 23 -8 48 -11 19 -19 29 -20 22z"/>
<path d="M6609 4876 c-2 -2 -3 -50 -1 -105 l3 -101 103 0 103 0 1 105 1 105
-103 0 c-56 0 -105 -2 -107 -4z"/>
<path d="M6890 4775 l0 -105 105 0 105 0 0 105 0 105 -105 0 -105 0 0 -105z"/>
<path d="M6908 4593 c-16 -4 -18 -18 -18 -109 l0 -104 105 0 105 0 0 104 0
103 -67 6 c-73 7 -98 7 -125 0z"/>
<path d="M6610 4485 l0 -106 100 3 101 3 5 103 5 102 -106 0 -105 0 0 -105z"/>
<path d="M6111 4103 c-51 -3 -71 -9 -94 -29 -98 -83 -318 -146 -678 -195 -192
-26 -683 -38 -833 -20 l-97 11 -152 -41 c-303 -82 -653 -208 -913 -329 -57
-27 -104 -51 -104 -53 0 -2 69 11 153 29 988 214 1500 293 2262 349 641 47
1128 46 1765 -1 614 -45 1262 -151 1899 -309 212 -53 264 -62 179 -32 -24 9
-109 43 -190 76 -775 318 -1711 502 -2753 541 -255 9 -315 10 -444 3z"/>
</g>
</svg>
